<svg width="105" height="31" fill="none" xmlns="http://www.w3.org/2000/svg"><path d="M92.855 15.5L105 0H0v31h105L92.855 15.5z" fill="#4F66D1"/><path d="M17.172 16.525c-.06.03-.06.06 0 .09.95.49 1.425 1.305 1.425 2.445 0 .97-.33 1.705-.99 2.205-.66.49-1.525.735-2.595.735h-3.885a.22.22 0 01-.135-.045.22.22 0 01-.045-.135V11.68c0-.05.015-.09.045-.12.04-.04.085-.06.135-.06h3.765c2.37 0 3.555.96 3.555 2.88 0 1-.425 1.715-1.275 2.145zm-4.035-3.21c-.05 0-.075.025-.075.075v2.34c0 .05.025.075.075.075h1.755c.47 0 .835-.11 1.095-.33.26-.22.39-.52.39-.9 0-.39-.13-.695-.39-.915-.26-.23-.625-.345-1.095-.345h-1.755zm1.875 6.855c.46 0 .82-.115 1.08-.345.26-.24.39-.565.39-.975 0-.41-.13-.73-.39-.96-.26-.24-.625-.36-1.095-.36h-1.86c-.05 0-.075.025-.075.075v2.49c0 .05.025.075.075.075h1.875zm11.927-2.82c.06.38.08.805.06 1.275-.01.12-.075.18-.195.18h-4.635c-.06 0-.08.025-.06.075.03.2.085.4.165.6.26.56.79.84 1.59.84.64-.01 1.145-.27 1.515-.78.04-.06.085-.09.135-.09.03 0 .065.02.105.06l1.08 1.065c.05.05.075.095.075.135 0 .02-.02.06-.06.12-.33.41-.755.73-1.275.96-.52.22-1.09.33-1.71.33-.86 0-1.59-.195-2.19-.585-.59-.39-1.015-.935-1.275-1.635-.21-.5-.315-1.155-.315-1.965 0-.55.075-1.035.225-1.455.23-.71.63-1.275 1.2-1.695.58-.42 1.265-.63 2.055-.63 1 0 1.8.29 2.4.87.61.58.98 1.355 1.11 2.325zm-3.495-1.365c-.63 0-1.045.295-1.245.885-.04.13-.075.29-.105.48 0 .05.025.075.075.075h2.595c.06 0 .08-.025.06-.075-.05-.29-.075-.43-.075-.42-.09-.3-.25-.53-.48-.69-.22-.17-.495-.255-.825-.255zm7.83 6.12c-.67 0-1.254-.095-1.754-.285-.5-.19-.89-.455-1.17-.795a1.808 1.808 0 01-.405-1.155v-.15c0-.05.015-.09.045-.12.04-.04.085-.06.135-.06h1.665c.05 0 .09.02.12.06.04.03.06.07.06.12v.015c0 .22.12.41.36.57.25.15.56.225.93.225.34 0 .615-.065.825-.195.21-.14.315-.31.315-.51 0-.18-.09-.315-.27-.405-.18-.09-.475-.185-.885-.285a8.91 8.91 0 01-1.11-.345c-.64-.22-1.15-.49-1.53-.81-.38-.32-.57-.78-.57-1.38 0-.74.285-1.325.855-1.755.58-.44 1.345-.66 2.295-.66.64 0 1.2.105 1.68.315.48.2.85.485 1.11.855.27.37.405.79.405 1.26 0 .05-.02.095-.06.135a.162.162 0 01-.12.045h-1.605a.22.22 0 01-.135-.045.22.22 0 01-.045-.135c0-.22-.115-.405-.345-.555-.22-.15-.515-.225-.885-.225-.33 0-.6.06-.81.18-.21.12-.315.285-.315.495 0 .2.1.35.3.45.21.1.555.205 1.035.315l.375.105c.14.03.29.07.45.12.71.21 1.27.48 1.68.81.41.33.615.81.615 1.44 0 .74-.295 1.32-.885 1.74-.58.41-1.365.615-2.355.615zm8.866-6.3c0 .05-.02.095-.06.135a.162.162 0 01-.12.045h-1.44c-.05 0-.075.025-.075.075v3.18c0 .33.065.575.195.735.14.16.36.24.66.24h.495c.05 0 .09.02.12.06.04.03.06.07.06.12v1.425c0 .11-.06.175-.18.195-.42.02-.72.03-.9.03-.83 0-1.45-.135-1.86-.405-.41-.28-.62-.8-.63-1.56v-4.02c0-.05-.025-.075-.075-.075h-.855a.22.22 0 01-.135-.045.22.22 0 01-.045-.135V14.47c0-.05.015-.09.045-.12.04-.04.085-.06.135-.06h.855c.05 0 .075-.025.075-.075V12.43c0-.05.015-.09.045-.12.04-.04.085-.06.135-.06h1.68c.05 0 .09.02.12.06.04.03.06.07.06.12v1.785c0 .05.025.075.075.075h1.44c.05 0 .09.02.12.06.04.03.06.07.06.12v1.335zm8.01 6.315c-.8 0-1.5-.125-2.1-.375-.6-.26-1.064-.625-1.394-1.095-.32-.48-.48-1.035-.48-1.665v-.33c0-.05.015-.09.045-.12.04-.04.085-.06.135-.06h1.71c.05 0 .09.02.12.06.04.03.06.07.06.12v.225c0 .4.185.74.555 1.02.37.27.87.405 1.5.405.53 0 .925-.11 1.185-.33.26-.23.39-.51.39-.84 0-.24-.08-.44-.24-.6-.16-.17-.38-.315-.66-.435-.27-.13-.705-.305-1.305-.525-.67-.23-1.24-.465-1.71-.705-.46-.24-.85-.565-1.17-.975-.31-.42-.465-.935-.465-1.545 0-.6.155-1.125.465-1.575.31-.45.74-.795 1.29-1.035.55-.24 1.185-.36 1.905-.36.76 0 1.435.135 2.025.405.6.27 1.065.65 1.395 1.14.34.48.51 1.04.51 1.68v.225c0 .05-.02.095-.06.135a.162.162 0 01-.12.045H50.01a.22.22 0 01-.135-.045.22.22 0 01-.045-.135v-.12c0-.42-.175-.775-.525-1.065-.34-.3-.81-.45-1.41-.45-.47 0-.84.1-1.11.3-.26.2-.39.475-.39.825 0 .25.075.46.225.63.16.17.39.325.69.465.31.13.785.31 1.425.54.71.26 1.265.49 1.665.69.41.2.775.5 1.095.9.33.39.495.9.495 1.53 0 .94-.345 1.685-1.035 2.235-.69.54-1.625.81-2.805.81zm12.012-4.77c.06.38.08.805.06 1.275-.01.12-.075.18-.195.18h-4.635c-.06 0-.08.025-.06.075.03.2.085.4.165.6.26.56.79.84 1.59.84.64-.01 1.145-.27 1.515-.78.04-.06.085-.09.135-.09.03 0 .065.02.105.06l1.08 1.065c.05.05.075.095.075.135 0 .02-.02.06-.06.12-.33.41-.755.73-1.275.96-.52.22-1.09.33-1.71.33-.86 0-1.59-.195-2.19-.585-.59-.39-1.015-.935-1.275-1.635-.21-.5-.315-1.155-.315-1.965 0-.55.075-1.035.225-1.455.23-.71.63-1.275 1.2-1.695.58-.42 1.265-.63 2.055-.63 1 0 1.8.29 2.4.87.61.58.98 1.355 1.11 2.325zm-3.495-1.365c-.63 0-1.045.295-1.245.885-.04.13-.075.29-.105.48 0 .05.025.075.075.075h2.595c.06 0 .08-.025.06-.075-.05-.29-.075-.43-.075-.42-.09-.3-.25-.53-.48-.69-.22-.17-.495-.255-.825-.255zM61.705 22a.22.22 0 01-.135-.045.22.22 0 01-.045-.135V11.68c0-.05.015-.09.045-.12.04-.04.085-.06.135-.06h1.755c.05 0 .09.02.12.06.04.03.06.07.06.12v10.14c0 .05-.02.095-.06.135a.162.162 0 01-.12.045h-1.755zm3.662 0a.22.22 0 01-.135-.045.22.22 0 01-.045-.135V11.68c0-.05.015-.09.045-.12.04-.04.085-.06.135-.06h1.755c.05 0 .09.02.12.06.04.03.06.07.06.12v10.14c0 .05-.02.095-.06.135a.162.162 0 01-.12.045h-1.755zm10.307-4.65c.06.38.08.805.06 1.275-.01.12-.075.18-.195.18h-4.635c-.06 0-.08.025-.06.075.03.2.085.4.165.6.26.56.79.84 1.59.84.64-.01 1.145-.27 1.515-.78.04-.06.085-.09.135-.09.03 0 .065.02.105.06l1.08 1.065c.05.05.075.095.075.135 0 .02-.02.06-.06.12-.33.41-.755.73-1.275.96-.52.22-1.09.33-1.71.33-.86 0-1.59-.195-2.19-.585-.59-.39-1.015-.935-1.275-1.635-.21-.5-.315-1.155-.315-1.965 0-.55.075-1.035.225-1.455.23-.71.63-1.275 1.2-1.695.58-.42 1.265-.63 2.055-.63 1 0 1.8.29 2.4.87.61.58.98 1.355 1.11 2.325zm-3.495-1.365c-.63 0-1.045.295-1.245.885-.04.13-.075.29-.105.48 0 .05.025.075.075.075H73.5c.06 0 .08-.025.06-.075-.05-.29-.075-.43-.075-.42-.09-.3-.25-.53-.48-.69-.22-.17-.495-.255-.825-.255zm8.699-1.8c.36 0 .645.07.855.21.08.04.11.115.09.225l-.315 1.71c-.01.12-.08.155-.21.105a1.662 1.662 0 00-.525-.075c-.08 0-.19.01-.33.03-.36.03-.665.165-.915.405-.25.23-.375.54-.375.93v4.095c0 .05-.02.095-.06.135a.162.162 0 01-.12.045h-1.755a.22.22 0 01-.135-.045.22.22 0 01-.045-.135v-7.35c0-.05.015-.09.045-.12.04-.04.085-.06.135-.06h1.755c.05 0 .09.02.12.06.04.03.06.07.06.12v.57c0 .03.01.05.03.06.02.01.035.005.045-.015.41-.6.96-.9 1.65-.9z" fill="#fff"/></svg>