<svg width="105" height="31" viewBox="0 0 105 31" fill="none" xmlns="http://www.w3.org/2000/svg">
<path d="M92.8545 15.5L105 0H0V31H105L92.8545 15.5Z" fill="#CB2026"/>
<path d="M12.34 10.68C12.34 10.63 12.355 10.59 12.385 10.56C12.425 10.52 12.47 10.5 12.52 10.5H14.275C14.325 10.5 14.365 10.52 14.395 10.56C14.435 10.59 14.455 10.63 14.455 10.68V20.82C14.455 20.87 14.435 20.915 14.395 20.955C14.365 20.985 14.325 21 14.275 21H12.58C12.48 21 12.41 20.96 12.37 20.88L8.48502 14.46C8.46502 14.43 8.44502 14.42 8.42502 14.43C8.40502 14.43 8.39502 14.45 8.39502 14.49L8.42502 20.82C8.42502 20.87 8.40502 20.915 8.36502 20.955C8.33502 20.985 8.29502 21 8.24502 21H6.49002C6.44002 21 6.39502 20.985 6.35502 20.955C6.32502 20.915 6.31002 20.87 6.31002 20.82V10.68C6.31002 10.63 6.32502 10.59 6.35502 10.56C6.39502 10.52 6.44002 10.5 6.49002 10.5H8.18502C8.28502 10.5 8.35502 10.54 8.39502 10.62L12.265 17.01C12.285 17.04 12.305 17.055 12.325 17.055C12.345 17.045 12.355 17.02 12.355 16.98L12.34 10.68ZM22.9756 16.35C23.0356 16.73 23.0556 17.155 23.0356 17.625C23.0256 17.745 22.9606 17.805 22.8406 17.805H18.2056C18.1456 17.805 18.1256 17.83 18.1456 17.88C18.1756 18.08 18.2306 18.28 18.3106 18.48C18.5706 19.04 19.1006 19.32 19.9006 19.32C20.5406 19.31 21.0456 19.05 21.4156 18.54C21.4556 18.48 21.5006 18.45 21.5506 18.45C21.5806 18.45 21.6156 18.47 21.6556 18.51L22.7356 19.575C22.7856 19.625 22.8106 19.67 22.8106 19.71C22.8106 19.73 22.7906 19.77 22.7506 19.83C22.4206 20.24 21.9956 20.56 21.4756 20.79C20.9556 21.01 20.3856 21.12 19.7656 21.12C18.9056 21.12 18.1756 20.925 17.5756 20.535C16.9856 20.145 16.5606 19.6 16.3006 18.9C16.0906 18.4 15.9856 17.745 15.9856 16.935C15.9856 16.385 16.0606 15.9 16.2106 15.48C16.4406 14.77 16.8406 14.205 17.4106 13.785C17.9906 13.365 18.6756 13.155 19.4656 13.155C20.4656 13.155 21.2656 13.445 21.8656 14.025C22.4756 14.605 22.8456 15.38 22.9756 16.35ZM19.4806 14.985C18.8506 14.985 18.4356 15.28 18.2356 15.87C18.1956 16 18.1606 16.16 18.1306 16.35C18.1306 16.4 18.1556 16.425 18.2056 16.425H20.8006C20.8606 16.425 20.8806 16.4 20.8606 16.35C20.8106 16.06 20.7856 15.92 20.7856 15.93C20.6956 15.63 20.5356 15.4 20.3056 15.24C20.0856 15.07 19.8106 14.985 19.4806 14.985ZM25.8343 21C25.7243 21 25.6543 20.95 25.6243 20.85L23.4643 13.485L23.4493 13.425C23.4493 13.325 23.5043 13.275 23.6143 13.275H25.4293C25.5393 13.275 25.6093 13.325 25.6393 13.425L26.7193 17.955C26.7293 17.985 26.7443 18 26.7643 18C26.7843 18 26.7993 17.985 26.8093 17.955L27.9343 13.425C27.9643 13.325 28.0343 13.275 28.1443 13.275H29.7193C29.8293 13.275 29.8993 13.325 29.9293 13.425L31.1143 17.97C31.1243 18 31.1393 18.015 31.1593 18.015C31.1793 18.015 31.1943 18 31.2043 17.97L32.3743 13.425C32.4043 13.325 32.4743 13.275 32.5843 13.275L34.3843 13.305C34.4443 13.305 34.4843 13.325 34.5043 13.365C34.5343 13.395 34.5443 13.44 34.5343 13.5L32.3443 20.85C32.3143 20.95 32.2493 21 32.1493 21H30.3343C30.2243 21 30.1543 20.95 30.1243 20.85L28.9693 16.83C28.9593 16.8 28.9443 16.785 28.9243 16.785C28.9043 16.785 28.8893 16.8 28.8793 16.83L27.8593 20.85C27.8293 20.95 27.7593 21 27.6493 21H25.8343ZM44.5603 21C44.4603 21 44.3903 20.955 44.3503 20.865L42.4753 16.71C42.4553 16.67 42.4253 16.65 42.3853 16.65H40.9903C40.9403 16.65 40.9153 16.675 40.9153 16.725V20.82C40.9153 20.87 40.8953 20.915 40.8553 20.955C40.8253 20.985 40.7853 21 40.7353 21H38.9803C38.9303 21 38.8853 20.985 38.8453 20.955C38.8153 20.915 38.8003 20.87 38.8003 20.82V10.68C38.8003 10.63 38.8153 10.59 38.8453 10.56C38.8853 10.52 38.9303 10.5 38.9803 10.5H43.2703C43.9103 10.5 44.4703 10.63 44.9503 10.89C45.4403 11.15 45.8153 11.52 46.0753 12C46.3453 12.48 46.4803 13.035 46.4803 13.665C46.4803 14.345 46.3103 14.93 45.9703 15.42C45.6303 15.9 45.1553 16.24 44.5453 16.44C44.4953 16.46 44.4803 16.495 44.5003 16.545L46.5403 20.79C46.5603 20.83 46.5703 20.86 46.5703 20.88C46.5703 20.96 46.5153 21 46.4053 21H44.5603ZM40.9903 12.315C40.9403 12.315 40.9153 12.34 40.9153 12.39V14.955C40.9153 15.005 40.9403 15.03 40.9903 15.03H42.9553C43.3753 15.03 43.7153 14.905 43.9753 14.655C44.2453 14.405 44.3803 14.08 44.3803 13.68C44.3803 13.28 44.2453 12.955 43.9753 12.705C43.7153 12.445 43.3753 12.315 42.9553 12.315H40.9903ZM54.6016 16.35C54.6616 16.73 54.6816 17.155 54.6616 17.625C54.6516 17.745 54.5866 17.805 54.4666 17.805H49.8316C49.7716 17.805 49.7516 17.83 49.7716 17.88C49.8016 18.08 49.8566 18.28 49.9366 18.48C50.1966 19.04 50.7266 19.32 51.5266 19.32C52.1666 19.31 52.6716 19.05 53.0416 18.54C53.0816 18.48 53.1266 18.45 53.1766 18.45C53.2066 18.45 53.2416 18.47 53.2816 18.51L54.3616 19.575C54.4116 19.625 54.4366 19.67 54.4366 19.71C54.4366 19.73 54.4166 19.77 54.3766 19.83C54.0466 20.24 53.6216 20.56 53.1016 20.79C52.5816 21.01 52.0116 21.12 51.3916 21.12C50.5316 21.12 49.8016 20.925 49.2016 20.535C48.6116 20.145 48.1866 19.6 47.9266 18.9C47.7166 18.4 47.6116 17.745 47.6116 16.935C47.6116 16.385 47.6866 15.9 47.8366 15.48C48.0666 14.77 48.4666 14.205 49.0366 13.785C49.6166 13.365 50.3016 13.155 51.0916 13.155C52.0916 13.155 52.8916 13.445 53.4916 14.025C54.1016 14.605 54.4716 15.38 54.6016 16.35ZM51.1066 14.985C50.4766 14.985 50.0616 15.28 49.8616 15.87C49.8216 16 49.7866 16.16 49.7566 16.35C49.7566 16.4 49.7816 16.425 49.8316 16.425H52.4266C52.4866 16.425 52.5066 16.4 52.4866 16.35C52.4366 16.06 52.4116 15.92 52.4116 15.93C52.3216 15.63 52.1616 15.4 51.9316 15.24C51.7116 15.07 51.4366 14.985 51.1066 14.985ZM56.1451 21C56.0951 21 56.0501 20.985 56.0101 20.955C55.9801 20.915 55.9651 20.87 55.9651 20.82V10.68C55.9651 10.63 55.9801 10.59 56.0101 10.56C56.0501 10.52 56.0951 10.5 56.1451 10.5H57.9001C57.9501 10.5 57.9901 10.52 58.0201 10.56C58.0601 10.59 58.0801 10.63 58.0801 10.68V20.82C58.0801 20.87 58.0601 20.915 58.0201 20.955C57.9901 20.985 57.9501 21 57.9001 21H56.1451ZM66.4522 16.35C66.5122 16.73 66.5322 17.155 66.5122 17.625C66.5022 17.745 66.4372 17.805 66.3172 17.805H61.6822C61.6222 17.805 61.6022 17.83 61.6222 17.88C61.6522 18.08 61.7072 18.28 61.7872 18.48C62.0472 19.04 62.5772 19.32 63.3772 19.32C64.0172 19.31 64.5222 19.05 64.8922 18.54C64.9322 18.48 64.9772 18.45 65.0272 18.45C65.0572 18.45 65.0922 18.47 65.1322 18.51L66.2122 19.575C66.2622 19.625 66.2872 19.67 66.2872 19.71C66.2872 19.73 66.2672 19.77 66.2272 19.83C65.8972 20.24 65.4722 20.56 64.9522 20.79C64.4322 21.01 63.8622 21.12 63.2422 21.12C62.3822 21.12 61.6522 20.925 61.0522 20.535C60.4622 20.145 60.0372 19.6 59.7772 18.9C59.5672 18.4 59.4622 17.745 59.4622 16.935C59.4622 16.385 59.5372 15.9 59.6872 15.48C59.9172 14.77 60.3172 14.205 60.8872 13.785C61.4672 13.365 62.1522 13.155 62.9422 13.155C63.9422 13.155 64.7422 13.445 65.3422 14.025C65.9522 14.605 66.3222 15.38 66.4522 16.35ZM62.9572 14.985C62.3272 14.985 61.9122 15.28 61.7122 15.87C61.6722 16 61.6372 16.16 61.6072 16.35C61.6072 16.4 61.6322 16.425 61.6822 16.425H64.2772C64.3372 16.425 64.3572 16.4 64.3372 16.35C64.2872 16.06 64.2622 15.92 64.2622 15.93C64.1722 15.63 64.0122 15.4 63.7822 15.24C63.5622 15.07 63.2872 14.985 62.9572 14.985ZM70.8174 13.17C71.4674 13.17 72.0474 13.285 72.5574 13.515C73.0674 13.735 73.4624 14.04 73.7424 14.43C74.0324 14.82 74.1774 15.255 74.1774 15.735V20.82C74.1774 20.87 74.1574 20.915 74.1174 20.955C74.0874 20.985 74.0474 21 73.9974 21H72.2424C72.1924 21 72.1474 20.985 72.1074 20.955C72.0774 20.915 72.0624 20.87 72.0624 20.82V20.325C72.0624 20.295 72.0524 20.275 72.0324 20.265C72.0124 20.255 71.9924 20.265 71.9724 20.295C71.5524 20.845 70.8774 21.12 69.9474 21.12C69.1674 21.12 68.5374 20.93 68.0574 20.55C67.5774 20.17 67.3374 19.61 67.3374 18.87C67.3374 18.1 67.6074 17.505 68.1474 17.085C68.6874 16.655 69.4574 16.44 70.4574 16.44H71.9874C72.0374 16.44 72.0624 16.415 72.0624 16.365V16.035C72.0624 15.705 71.9624 15.45 71.7624 15.27C71.5624 15.08 71.2624 14.985 70.8624 14.985C70.5524 14.985 70.2924 15.04 70.0824 15.15C69.8824 15.26 69.7524 15.415 69.6924 15.615C69.6624 15.725 69.5974 15.775 69.4974 15.765L67.6824 15.525C67.5624 15.505 67.5074 15.46 67.5174 15.39C67.5574 14.97 67.7224 14.59 68.0124 14.25C68.3124 13.91 68.7024 13.645 69.1824 13.455C69.6724 13.265 70.2174 13.17 70.8174 13.17ZM70.5174 19.545C70.9474 19.545 71.3124 19.43 71.6124 19.2C71.9124 18.97 72.0624 18.675 72.0624 18.315V17.775C72.0624 17.725 72.0374 17.7 71.9874 17.7H70.9074C70.4574 17.7 70.1024 17.785 69.8424 17.955C69.5924 18.125 69.4674 18.365 69.4674 18.675C69.4674 18.945 69.5624 19.16 69.7524 19.32C69.9424 19.47 70.1974 19.545 70.5174 19.545ZM78.7422 21.105C78.0722 21.105 77.4872 21.01 76.9872 20.82C76.4872 20.63 76.0972 20.365 75.8172 20.025C75.5472 19.685 75.4122 19.3 75.4122 18.87V18.72C75.4122 18.67 75.4272 18.63 75.4572 18.6C75.4972 18.56 75.5422 18.54 75.5922 18.54H77.2572C77.3072 18.54 77.3472 18.56 77.3772 18.6C77.4172 18.63 77.4372 18.67 77.4372 18.72V18.735C77.4372 18.955 77.5572 19.145 77.7972 19.305C78.0472 19.455 78.3572 19.53 78.7272 19.53C79.0672 19.53 79.3422 19.465 79.5522 19.335C79.7622 19.195 79.8672 19.025 79.8672 18.825C79.8672 18.645 79.7772 18.51 79.5972 18.42C79.4172 18.33 79.1222 18.235 78.7122 18.135C78.2422 18.015 77.8722 17.9 77.6022 17.79C76.9622 17.57 76.4522 17.3 76.0722 16.98C75.6922 16.66 75.5022 16.2 75.5022 15.6C75.5022 14.86 75.7872 14.275 76.3572 13.845C76.9372 13.405 77.7022 13.185 78.6522 13.185C79.2922 13.185 79.8522 13.29 80.3322 13.5C80.8122 13.7 81.1822 13.985 81.4422 14.355C81.7122 14.725 81.8472 15.145 81.8472 15.615C81.8472 15.665 81.8272 15.71 81.7872 15.75C81.7572 15.78 81.7172 15.795 81.6672 15.795H80.0622C80.0122 15.795 79.9672 15.78 79.9272 15.75C79.8972 15.71 79.8822 15.665 79.8822 15.615C79.8822 15.395 79.7672 15.21 79.5372 15.06C79.3172 14.91 79.0222 14.835 78.6522 14.835C78.3222 14.835 78.0522 14.895 77.8422 15.015C77.6322 15.135 77.5272 15.3 77.5272 15.51C77.5272 15.71 77.6272 15.86 77.8272 15.96C78.0372 16.06 78.3822 16.165 78.8622 16.275C78.9722 16.305 79.0972 16.34 79.2372 16.38C79.3772 16.41 79.5272 16.45 79.6872 16.5C80.3972 16.71 80.9572 16.98 81.3672 17.31C81.7772 17.64 81.9822 18.12 81.9822 18.75C81.9822 19.49 81.6872 20.07 81.0972 20.49C80.5172 20.9 79.7322 21.105 78.7422 21.105ZM90.0215 16.35C90.0815 16.73 90.1015 17.155 90.0815 17.625C90.0715 17.745 90.0065 17.805 89.8865 17.805H85.2515C85.1915 17.805 85.1715 17.83 85.1915 17.88C85.2215 18.08 85.2765 18.28 85.3565 18.48C85.6165 19.04 86.1465 19.32 86.9465 19.32C87.5865 19.31 88.0915 19.05 88.4615 18.54C88.5015 18.48 88.5465 18.45 88.5965 18.45C88.6265 18.45 88.6615 18.47 88.7015 18.51L89.7815 19.575C89.8315 19.625 89.8565 19.67 89.8565 19.71C89.8565 19.73 89.8365 19.77 89.7965 19.83C89.4665 20.24 89.0415 20.56 88.5215 20.79C88.0015 21.01 87.4315 21.12 86.8115 21.12C85.9515 21.12 85.2215 20.925 84.6215 20.535C84.0315 20.145 83.6065 19.6 83.3465 18.9C83.1365 18.4 83.0315 17.745 83.0315 16.935C83.0315 16.385 83.1065 15.9 83.2565 15.48C83.4865 14.77 83.8865 14.205 84.4565 13.785C85.0365 13.365 85.7215 13.155 86.5115 13.155C87.5115 13.155 88.3115 13.445 88.9115 14.025C89.5215 14.605 89.8915 15.38 90.0215 16.35ZM86.5265 14.985C85.8965 14.985 85.4815 15.28 85.2815 15.87C85.2415 16 85.2065 16.16 85.1765 16.35C85.1765 16.4 85.2015 16.425 85.2515 16.425H87.8465C87.9065 16.425 87.9265 16.4 87.9065 16.35C87.8565 16.06 87.8315 15.92 87.8315 15.93C87.7415 15.63 87.5815 15.4 87.3515 15.24C87.1315 15.07 86.8565 14.985 86.5265 14.985Z" fill="white"/>
</svg>
