<svg width="13" height="13" viewBox="0 0 13 13" fill="none" xmlns="http://www.w3.org/2000/svg">
<path d="M5.24867 2.06975L5.02067 4.05201L4.97627 4.4297H2.98067L3.02507 4.05201L3.25307 2.06975H5.24867Z" fill="#FEF900"/>
<path fill-rule="evenodd" clip-rule="evenodd" d="M3.02507 4.05201L2.98067 4.4297H4.97627L5.02067 4.05201L5.24867 2.06975H3.25307L3.02507 4.05201ZM3.32729 2.15755L3.10818 4.06253L3.07534 4.3419H4.90223L4.93755 4.0415L5.15424 2.15755H3.32729Z" fill="#351F97"/>
<path d="M9.18227 4.4297H7.18907L7.14467 4.05201L6.91667 2.06975H8.91107L9.13907 4.05201L9.18227 4.4297Z" fill="#FEF900"/>
<path fill-rule="evenodd" clip-rule="evenodd" d="M9.18227 4.4297L8.91107 2.06975H6.91667L7.14467 4.05201L7.18907 4.4297H9.18227ZM9.0879 4.3419L8.83684 2.15755H7.0111L7.22776 4.04127L7.2631 4.3419H9.0879Z" fill="#351F97"/>
<path d="M4.32467 4.4297H2.97707V5.12584H3.48347H4.98947V4.4297H4.32467Z" fill="#FEF900"/>
<path d="M7.83947 4.4297H7.17587V5.12584H8.66507H9.18827V4.4297H7.83947Z" fill="#FEF900"/>
<path opacity="0.9" d="M1.53739 6.65016H4.25475V11.1244H1.53739V6.65016Z" fill="#FEF900"/>
<path opacity="0.9" d="M5.12947 6.65016H10.6058V11.1244H5.12947V6.65016Z" fill="#FEF900"/>
<path d="M11.0339 12.0452H1.10386C1.07204 12.0452 1.04151 12.0322 1.01901 12.0091C0.996505 11.9859 0.983862 11.9545 0.983862 11.9218V11.001C0.983862 10.9683 0.996505 10.9369 1.01901 10.9137C1.04151 10.8906 1.07204 10.8776 1.10386 10.8776H11.0339C11.0657 10.8776 11.0962 10.8906 11.1187 10.9137C11.1412 10.9369 11.1539 10.9683 11.1539 11.001V11.9218C11.1539 11.9545 11.1412 11.9859 11.1187 12.0091C11.0962 12.0322 11.0657 12.0452 11.0339 12.0452ZM1.22506 11.7984H10.9139V11.1245H1.22386V11.7984H1.22506Z" fill="#351F97"/>
<path fill-rule="evenodd" clip-rule="evenodd" d="M1.10387 10.9215C1.08288 10.9215 1.06292 10.9301 1.04833 10.9451C1.03376 10.9601 1.02573 10.9802 1.02573 11.001V11.9218C1.02573 11.9426 1.03376 11.9628 1.04833 11.9777C1.06292 11.9927 1.08289 12.0013 1.10387 12.0013H11.0339C11.0549 12.0013 11.0748 11.9927 11.0894 11.9777C11.104 11.9628 11.112 11.9426 11.112 11.9218V11.001C11.112 10.9802 11.104 10.9601 11.0894 10.9451C11.0748 10.9301 11.0549 10.9215 11.0339 10.9215H1.10387ZM0.989705 10.8824C1.02012 10.8511 1.0612 10.8337 1.10387 10.8337H11.0339C11.0765 10.8337 11.1176 10.8511 11.148 10.8824C11.1785 10.9137 11.1957 10.9564 11.1957 11.001V11.9218C11.1957 11.9665 11.1785 12.0091 11.148 12.0404C11.1176 12.0717 11.0765 12.0891 11.0339 12.0891H1.10387C1.0612 12.0891 1.02012 12.0717 0.989705 12.0404C0.959263 12.0091 0.942008 11.9665 0.942008 11.9218V11.001C0.942008 10.9564 0.959263 10.9137 0.989705 10.8824ZM1.18201 11.0806H10.9557V11.8423H1.18201V11.0806ZM1.26573 11.1684V11.7545H10.872V11.1684H1.26573Z" fill="#351F97"/>
<path d="M10.6427 11.1244H1.49866C1.46684 11.1244 1.43631 11.1114 1.41381 11.0883C1.39131 11.0651 1.37866 11.0337 1.37866 11.001V5.12581C1.37866 5.09307 1.39131 5.06168 1.41381 5.03853C1.43631 5.01538 1.46684 5.00238 1.49866 5.00238H10.6427C10.6745 5.00238 10.705 5.01538 10.7275 5.03853C10.75 5.06168 10.7627 5.09307 10.7627 5.12581V11.001C10.7627 11.0337 10.75 11.0651 10.7275 11.0883C10.705 11.1114 10.6745 11.1244 10.6427 11.1244ZM1.62106 10.8776H10.5227V5.24924H1.61866V10.8776H1.62106Z" fill="#351F97"/>
<path fill-rule="evenodd" clip-rule="evenodd" d="M1.49867 5.0463C1.47769 5.0463 1.45772 5.05488 1.44313 5.06989C1.42856 5.08488 1.42053 5.10501 1.42053 5.12583V11.001C1.42053 11.0218 1.42856 11.042 1.44313 11.057C1.45772 11.072 1.47769 11.0806 1.49867 11.0806H10.6427C10.6637 11.0806 10.6836 11.072 10.6982 11.057C10.7128 11.042 10.7208 11.0218 10.7208 11.001V5.12583C10.7208 5.10501 10.7128 5.08488 10.6982 5.06989C10.6836 5.05488 10.6637 5.0463 10.6427 5.0463H1.49867ZM1.38451 5.00721C1.41492 4.97592 1.456 4.9585 1.49867 4.9585H10.6427C10.6853 4.9585 10.7264 4.97592 10.7568 5.00721C10.7873 5.03852 10.8045 5.08117 10.8045 5.12583V11.001C10.8045 11.0457 10.7873 11.0883 10.7568 11.1196C10.7264 11.1509 10.6853 11.1684 10.6427 11.1684H1.49867C1.456 11.1684 1.41492 11.1509 1.38451 11.1196C1.35406 11.0883 1.33681 11.0457 1.33681 11.001V5.12583C1.33681 5.08117 1.35406 5.03852 1.38451 5.00721ZM1.57681 5.20535H10.5645V10.9215H1.57681V5.20535ZM1.66053 5.29316V10.8337H10.4808V5.29316H1.66053Z" fill="#351F97"/>
<path d="M4.31866 11.1244H1.49866C1.46684 11.1244 1.43631 11.1114 1.41381 11.0883C1.39131 11.0651 1.37866 11.0338 1.37866 11.001V6.77359C1.37866 6.74086 1.39131 6.70946 1.41381 6.68631C1.43631 6.66317 1.46684 6.65016 1.49866 6.65016H4.31866C4.35049 6.65016 4.38101 6.66317 4.40352 6.68631C4.42602 6.70946 4.43866 6.74086 4.43866 6.77359V11.001C4.43866 11.0338 4.42602 11.0651 4.40352 11.0883C4.38101 11.1114 4.35049 11.1244 4.31866 11.1244ZM1.61746 10.8776H4.19866V6.89702H1.61866V10.8776H1.61746Z" fill="#351F97"/>
<path fill-rule="evenodd" clip-rule="evenodd" d="M1.49867 6.69408C1.47769 6.69408 1.45772 6.70266 1.44313 6.71768C1.42856 6.73266 1.42053 6.7528 1.42053 6.77361V11.001C1.42053 11.0219 1.42856 11.042 1.44313 11.057C1.45772 11.072 1.47769 11.0806 1.49867 11.0806H4.31867C4.33965 11.0806 4.35962 11.072 4.37421 11.057C4.38878 11.042 4.39681 11.0219 4.39681 11.001V6.77361C4.39681 6.7528 4.38878 6.73266 4.37421 6.71768C4.35962 6.70266 4.33965 6.69408 4.31867 6.69408H1.49867ZM1.38451 6.65499C1.41492 6.6237 1.456 6.60628 1.49867 6.60628H4.31867C4.36134 6.60628 4.40242 6.6237 4.43283 6.65499C4.46327 6.6863 4.48053 6.72895 4.48053 6.77361V11.001C4.48053 11.0457 4.46327 11.0883 4.43283 11.1197C4.40242 11.1509 4.36134 11.1684 4.31867 11.1684H1.49867C1.456 11.1684 1.41492 11.1509 1.38451 11.1197C1.35406 11.0883 1.33681 11.0457 1.33681 11.001V6.77361C1.33681 6.72895 1.35406 6.6863 1.38451 6.65499ZM1.57681 6.85313H4.24053V10.9215H1.61747V10.8776H1.57681V6.85313ZM1.66053 10.8337H4.15681V6.94094H1.66053V10.8337Z" fill="#351F97"/>
<path d="M10.6427 11.1245H5.12267C5.09085 11.1245 5.06032 11.1114 5.03782 11.0883C5.01531 11.0652 5.00267 11.0338 5.00267 11.001V6.73163C5.00267 6.69889 5.01531 6.6675 5.03782 6.64435C5.06032 6.6212 5.09085 6.6082 5.12267 6.6082H10.6427C10.6745 6.6082 10.705 6.6212 10.7275 6.64435C10.75 6.6675 10.7627 6.69889 10.7627 6.73163V11.001C10.7627 11.0338 10.75 11.0652 10.7275 11.0883C10.705 11.1114 10.6745 11.1245 10.6427 11.1245ZM5.24267 10.8776H10.5227V6.85506H5.24267V10.8776Z" fill="#351F97"/>
<path fill-rule="evenodd" clip-rule="evenodd" d="M5.12267 6.65211C5.10168 6.65211 5.08172 6.66069 5.06712 6.6757C5.05256 6.69068 5.04453 6.71082 5.04453 6.73163V11.001C5.04453 11.0218 5.05256 11.042 5.06712 11.057C5.08172 11.072 5.10168 11.0806 5.12267 11.0806H10.6427C10.6637 11.0806 10.6836 11.072 10.6982 11.057C10.7128 11.042 10.7208 11.0218 10.7208 11.001V6.73163C10.7208 6.71082 10.7128 6.69068 10.6982 6.6757C10.6836 6.66069 10.6637 6.65211 10.6427 6.65211H5.12267ZM5.0085 6.61301C5.03892 6.58173 5.08 6.5643 5.12267 6.5643H10.6427C10.6853 6.5643 10.7264 6.58173 10.7568 6.61301C10.7873 6.64432 10.8045 6.68697 10.8045 6.73163V11.001C10.8045 11.0457 10.7873 11.0883 10.7568 11.1196C10.7264 11.1509 10.6853 11.1684 10.6427 11.1684H5.12267C5.08 11.1684 5.03892 11.1509 5.0085 11.1196C4.97806 11.0883 4.96081 11.0457 4.96081 11.001V6.73163C4.96081 6.68697 4.97806 6.64432 5.0085 6.61301ZM5.20081 6.81116H10.5645V10.9215H5.20081V6.81116ZM5.28453 6.89896V10.8337H10.4808V6.89896H5.28453Z" fill="#351F97"/>
<path d="M3.51827 9.52482C3.47053 9.52482 3.42474 9.50531 3.39099 9.47059C3.35723 9.43587 3.33827 9.38878 3.33827 9.33967V8.66946C3.33827 8.62035 3.35723 8.57326 3.39099 8.53854C3.42474 8.50382 3.47053 8.48431 3.51827 8.48431C3.566 8.48431 3.61179 8.50382 3.64554 8.53854C3.6793 8.57326 3.69827 8.62035 3.69827 8.66946V9.34091C3.69795 9.3898 3.67884 9.43657 3.64512 9.47103C3.6114 9.50548 3.5658 9.52482 3.51827 9.52482Z" fill="#351F97"/>
<path fill-rule="evenodd" clip-rule="evenodd" d="M3.51827 8.52822C3.48138 8.52822 3.44615 8.5433 3.4203 8.56989C3.39448 8.59644 3.38013 8.63228 3.38013 8.66946V9.33968C3.38013 9.37686 3.39448 9.41269 3.4203 9.43925C3.44615 9.46583 3.48138 9.48092 3.51827 9.48092C3.55501 9.48092 3.5901 9.46597 3.61592 9.43958C3.64168 9.41326 3.65614 9.37772 3.65641 9.34075V8.66946C3.65641 8.63228 3.64206 8.59644 3.61624 8.56989C3.5904 8.5433 3.55517 8.52822 3.51827 8.52822ZM3.36168 8.5072C3.40335 8.46434 3.45969 8.44041 3.51827 8.44041C3.57685 8.44041 3.6332 8.46434 3.67486 8.5072C3.71656 8.55009 3.74013 8.60843 3.74013 8.66946V9.34121C3.73974 9.40197 3.71599 9.45992 3.67434 9.50248C3.63272 9.545 3.5766 9.56872 3.51827 9.56872C3.45969 9.56872 3.40335 9.54479 3.36168 9.50194C3.31999 9.45905 3.29641 9.4007 3.29641 9.33968V8.66946C3.29641 8.60843 3.31999 8.55009 3.36168 8.5072Z" fill="#351F97"/>
<path d="M6.69946 10.2321C6.67563 10.2322 6.65229 10.225 6.63243 10.2115C6.61257 10.1979 6.59708 10.1786 6.58794 10.156C6.5788 10.1333 6.57642 10.1084 6.58111 10.0844C6.5858 10.0603 6.59734 10.0383 6.61426 10.021L9.00226 7.56478C9.02513 7.54566 9.05404 7.53587 9.08348 7.53727C9.11291 7.53867 9.14082 7.55116 9.16188 7.57236C9.18294 7.59357 9.19568 7.622 9.19766 7.65224C9.19965 7.68248 9.19075 7.71242 9.17266 7.73634L6.78466 10.1926C6.77375 10.2047 6.76059 10.2144 6.74595 10.2212C6.73132 10.228 6.71551 10.2317 6.69946 10.2321Z" fill="#351F97"/>
<path fill-rule="evenodd" clip-rule="evenodd" d="M9.02988 7.59788L6.64358 10.0524C6.63262 10.0635 6.62512 10.0778 6.62213 10.0932C6.61914 10.1085 6.62065 10.1244 6.62649 10.1389C6.63234 10.1534 6.64231 10.1659 6.65526 10.1747C6.66812 10.1835 6.6833 10.1882 6.69887 10.1882C6.70931 10.1879 6.71956 10.1854 6.72904 10.181C6.73862 10.1766 6.74718 10.1703 6.75424 10.1624L6.75534 10.1612L9.14129 7.70713C9.15199 7.69206 9.15712 7.6737 9.15591 7.65526C9.15465 7.63602 9.14654 7.61777 9.1329 7.60404C9.11924 7.59029 9.10099 7.58205 9.08159 7.58113C9.06284 7.58024 9.04452 7.58625 9.02988 7.59788ZM8.97618 7.53045C9.00704 7.50466 9.04591 7.49154 9.08538 7.49342C9.12485 7.49529 9.16242 7.51204 9.19088 7.5407C9.21936 7.56937 9.23672 7.60798 9.23943 7.64922C9.24215 7.69047 9.22999 7.73119 9.20547 7.76362L9.20385 7.76577L6.8145 10.2234C6.79986 10.2395 6.78231 10.2524 6.76289 10.2614C6.7432 10.2705 6.72197 10.2754 6.70043 10.276L6.69971 10.276C6.66774 10.2762 6.63637 10.2666 6.60961 10.2483C6.58283 10.23 6.56183 10.2039 6.5494 10.1731C6.53696 10.1423 6.53372 10.1083 6.54011 10.0756C6.54649 10.0428 6.56217 10.0129 6.58501 9.98961C6.58504 9.98959 6.58499 9.98963 6.58501 9.98961L8.9745 7.53185L8.97618 7.53045Z" fill="#351F97"/>
<path d="M6.67067 9.35448C6.64683 9.35462 6.62349 9.34746 6.60363 9.33391C6.58377 9.32036 6.56828 9.30103 6.55914 9.27839C6.55 9.25574 6.54762 9.23082 6.55231 9.20678C6.557 9.18274 6.56854 9.16068 6.58547 9.14342L8.14547 7.53885C8.16842 7.51863 8.19795 7.50806 8.22815 7.50926C8.25835 7.51046 8.287 7.52334 8.30837 7.54532C8.32974 7.5673 8.34226 7.59677 8.34343 7.62783C8.3446 7.6589 8.33432 7.68927 8.31466 7.71288L6.75467 9.31745C6.73251 9.34071 6.70232 9.35402 6.67067 9.35448Z" fill="#351F97"/>
<path fill-rule="evenodd" clip-rule="evenodd" d="M8.17351 7.57151L6.61478 9.17477C6.60382 9.18595 6.59632 9.20026 6.59333 9.21558C6.59034 9.2309 6.59185 9.24679 6.5977 9.26128C6.60355 9.27577 6.61352 9.28828 6.62647 9.29712C6.63938 9.30593 6.65462 9.31065 6.67026 9.31059C6.69106 9.31024 6.71074 9.30147 6.72506 9.28643L6.72536 9.28612L8.28408 7.68286C8.29616 7.6678 8.30234 7.64883 8.30161 7.62957C8.30087 7.60981 8.29291 7.5909 8.27907 7.57667C8.26521 7.56242 8.24648 7.55393 8.22658 7.55314C8.20716 7.55237 8.18828 7.55899 8.17351 7.57151ZM6.67067 9.35449L6.67091 9.39839C6.63894 9.39858 6.60758 9.38898 6.58081 9.37072C6.55404 9.35245 6.53303 9.3263 6.5206 9.29551C6.50817 9.26471 6.50492 9.23075 6.51131 9.19799C6.51769 9.16527 6.53337 9.13536 6.55622 9.11203C6.55624 9.112 6.55619 9.11205 6.55622 9.11203L8.11847 7.50514C8.14946 7.47784 8.18925 7.46379 8.22975 7.4654C8.27024 7.467 8.30881 7.48427 8.33769 7.51398C8.3666 7.54371 8.38368 7.58374 8.38527 7.62611C8.38686 7.66849 8.37283 7.70978 8.34621 7.74176L8.34407 7.74433L6.78413 9.34866C6.75419 9.37999 6.71362 9.39777 6.67126 9.39839L6.67067 9.35449Z" fill="#351F97"/>
<path d="M7.95587 9.84821C7.93204 9.84835 7.9087 9.84119 7.88884 9.82764C7.86897 9.81408 7.85349 9.79475 7.84435 9.77211C7.8352 9.74947 7.83283 9.72454 7.83752 9.7005C7.8422 9.67647 7.85375 9.65441 7.87067 9.63714L8.62787 8.85707C8.65083 8.83685 8.68036 8.82628 8.71056 8.82748C8.74076 8.82868 8.76941 8.84156 8.79078 8.86354C8.81215 8.88553 8.82467 8.91499 8.82584 8.94606C8.827 8.97712 8.81673 9.00749 8.79707 9.03111L8.03987 9.81118C8.01771 9.83443 7.98752 9.84774 7.95587 9.84821Z" fill="#351F97"/>
<path fill-rule="evenodd" clip-rule="evenodd" d="M8.65591 8.88972L7.9 9.66846C7.88904 9.67965 7.88151 9.69398 7.87852 9.7093C7.87554 9.72462 7.87704 9.74051 7.88289 9.75499C7.88874 9.76949 7.89871 9.782 7.91166 9.79083C7.92457 9.79964 7.93982 9.80436 7.95545 9.80431C7.97626 9.80395 7.99593 9.79518 8.01025 9.78015L8.01053 9.77986L8.76647 9.0011C8.77854 8.98603 8.78473 8.96706 8.784 8.94779C8.78326 8.92803 8.7753 8.90912 8.76146 8.89489C8.74761 8.88064 8.72888 8.87215 8.70897 8.87136C8.68956 8.87059 8.67068 8.8772 8.65591 8.88972ZM7.95587 9.84821L7.95611 9.89211C7.92414 9.8923 7.89277 9.8827 7.86601 9.86443C7.83923 9.84616 7.81822 9.82002 7.80579 9.78923C7.79336 9.75843 7.79011 9.72446 7.7965 9.6917C7.80288 9.65899 7.81856 9.62908 7.84141 9.60575C7.84143 9.60572 7.84138 9.60577 7.84141 9.60575L8.60086 8.82336C8.63185 8.79606 8.67164 8.78201 8.71214 8.78362C8.75263 8.78523 8.7912 8.80249 8.82009 8.8322C8.84899 8.86194 8.86607 8.90196 8.86766 8.94433C8.86925 8.98671 8.85523 9.028 8.8286 9.05999L8.82649 9.06252L8.06933 9.84236C8.0394 9.8737 7.99882 9.89148 7.95645 9.8921L7.95587 9.84821Z" fill="#351F97"/>
<path d="M11.5631 5.24925H10.6427C10.6108 5.24925 10.5803 5.23625 10.5578 5.2131C10.5353 5.18995 10.5227 5.15856 10.5227 5.12582C10.5227 5.09309 10.5353 5.0617 10.5578 5.03855C10.5803 5.0154 10.6108 5.0024 10.6427 5.0024H11.4455V4.55312H0.72227V5.0024H1.49867C1.5305 5.0024 1.56102 5.0154 1.58352 5.03855C1.60603 5.0617 1.61867 5.09309 1.61867 5.12582C1.61867 5.15856 1.60603 5.18995 1.58352 5.2131C1.56102 5.23625 1.5305 5.24925 1.49867 5.24925H0.60227C0.570444 5.24925 0.539922 5.23625 0.517417 5.2131C0.494913 5.18995 0.48227 5.15856 0.48227 5.12582V4.42969C0.48227 4.39695 0.494913 4.36556 0.517417 4.34241C0.539922 4.31926 0.570444 4.30626 0.60227 4.30626H11.5631C11.5949 4.30626 11.6254 4.31926 11.6479 4.34241C11.6704 4.36556 11.6831 4.39695 11.6831 4.42969V5.12582C11.6831 5.15856 11.6704 5.18995 11.6479 5.2131C11.6254 5.23625 11.5949 5.24925 11.5631 5.24925Z" fill="#351F97"/>
<path fill-rule="evenodd" clip-rule="evenodd" d="M0.602266 4.35016C0.581282 4.35016 0.561318 4.35875 0.546724 4.37376C0.532157 4.38874 0.524126 4.40888 0.524126 4.42969V5.12583C0.524126 5.14664 0.532157 5.16678 0.546724 5.18176C0.561318 5.19677 0.581282 5.20535 0.602266 5.20535H1.49867C1.51965 5.20535 1.53961 5.19677 1.55421 5.18176C1.56877 5.16678 1.57681 5.14664 1.57681 5.12583C1.57681 5.10501 1.56877 5.08488 1.55421 5.06989C1.53961 5.05488 1.51965 5.0463 1.49867 5.0463H0.680405V4.50922H11.4873V5.0463H10.6427C10.6217 5.0463 10.6017 5.05488 10.5871 5.06989C10.5726 5.08488 10.5645 5.10501 10.5645 5.12583C10.5645 5.14664 10.5726 5.16678 10.5871 5.18176C10.6017 5.19677 10.6217 5.20535 10.6427 5.20535H11.5631C11.584 5.20535 11.604 5.19677 11.6186 5.18176C11.6332 5.16678 11.6412 5.14664 11.6412 5.12583V4.42969C11.6412 4.40888 11.6332 4.38874 11.6186 4.37376C11.604 4.35875 11.584 4.35016 11.5631 4.35016H0.602266ZM0.488103 4.31107C0.518517 4.27979 0.559598 4.26236 0.602266 4.26236H11.5631C11.6057 4.26236 11.6468 4.27979 11.6772 4.31107C11.7077 4.34238 11.7249 4.38503 11.7249 4.42969V5.12583C11.7249 5.17048 11.7077 5.21314 11.6772 5.24445C11.6468 5.27573 11.6057 5.29316 11.5631 5.29316H10.6427C10.6 5.29316 10.5589 5.27573 10.5285 5.24445C10.4981 5.21314 10.4808 5.17048 10.4808 5.12583C10.4808 5.08117 10.4981 5.03852 10.5285 5.00721C10.5589 4.97592 10.6 4.9585 10.6427 4.9585H11.4036V4.59702H0.764126V4.9585H1.49867C1.54133 4.9585 1.58241 4.97592 1.61283 5.00721C1.64327 5.03852 1.66053 5.08117 1.66053 5.12583C1.66053 5.17049 1.64327 5.21314 1.61283 5.24445C1.58241 5.27573 1.54133 5.29316 1.49867 5.29316H0.602266C0.559598 5.29316 0.518517 5.27573 0.488103 5.24445C0.45766 5.21314 0.440405 5.17049 0.440405 5.12583V4.42969C0.440405 4.38503 0.45766 4.34238 0.488103 4.31107Z" fill="#351F97"/>
<path d="M2.98066 4.55311H0.602262C0.570436 4.55311 0.539914 4.54011 0.517409 4.51696C0.494905 4.49382 0.482262 4.46242 0.482262 4.42969V4.41117C0.482146 4.38291 0.491465 4.35546 0.508662 4.33341L1.04266 2.04134C1.049 2.01373 1.06439 1.9892 1.08624 1.97189C1.1081 1.95458 1.13509 1.94554 1.16266 1.9463H3.25306C3.27011 1.94618 3.28699 1.94979 3.30257 1.95689C3.31816 1.964 3.33209 1.97444 3.34344 1.98752C3.3548 2.0006 3.36331 2.01602 3.36842 2.03275C3.37353 2.04948 3.37511 2.06713 3.37306 2.08454L3.10066 4.4445C3.09713 4.4746 3.08294 4.50232 3.06081 4.52235C3.03867 4.54238 3.01014 4.55333 2.98066 4.55311ZM0.763062 4.30626H2.87506L3.11506 2.19439H1.25626L0.763062 4.30626Z" fill="#351F97"/>
<path d="M7.18907 4.55311H4.97627C4.95922 4.55324 4.94235 4.54963 4.92676 4.54252C4.91118 4.53541 4.89725 4.52497 4.88589 4.51189C4.87454 4.49881 4.86602 4.48339 4.86092 4.46666C4.85581 4.44993 4.85423 4.43228 4.85627 4.41487L5.12867 2.05862C5.13221 2.02851 5.1464 2.0008 5.16853 1.98077C5.19066 1.96073 5.21919 1.94978 5.24867 1.95H6.92267C6.95215 1.94978 6.98068 1.96073 7.00281 1.98077C7.02495 2.0008 7.03913 2.02851 7.04267 2.05862L7.31387 4.41734C7.31561 4.43498 7.31364 4.4528 7.30808 4.46958C7.30253 4.48636 7.29352 4.50172 7.28168 4.5146C7.26984 4.52749 7.25544 4.53759 7.23946 4.54424C7.22348 4.55088 7.20629 4.55391 7.18907 4.55311ZM5.11187 4.30625H7.05347L6.81347 2.19439H5.35547L5.11187 4.30625Z" fill="#351F97"/>
<path d="M11.5631 4.55311H9.18227C9.15279 4.55333 9.12426 4.54238 9.10213 4.52235C9.07999 4.50232 9.06581 4.4746 9.06227 4.4445L8.79227 2.08454C8.79022 2.06713 8.79181 2.04948 8.79691 2.03275C8.80202 2.01602 8.81054 2.0006 8.82189 1.98752C8.83324 1.97444 8.84718 1.964 8.86276 1.95689C8.87834 1.94979 8.89522 1.94618 8.91227 1.9463H11.0027C11.0302 1.94554 11.0572 1.95458 11.0791 1.97189C11.1009 1.9892 11.1163 2.01373 11.1227 2.04134L11.6531 4.32971C11.6717 4.35207 11.6819 4.38052 11.6819 4.40994V4.42845C11.682 4.44466 11.6791 4.46074 11.6732 4.47578C11.6673 4.49082 11.6586 4.50452 11.6476 4.51609C11.6365 4.52767 11.6234 4.5369 11.6089 4.54325C11.5944 4.5496 11.5788 4.55295 11.5631 4.55311ZM9.29027 4.30626H11.4023L10.9079 2.19316H9.04547L9.29027 4.30626Z" fill="#351F97"/>
<path d="M4.97627 4.55311H2.98067C2.96362 4.55324 2.94674 4.54962 2.93116 4.54252C2.91557 4.53541 2.90164 4.52497 2.89029 4.51189C2.87893 4.49881 2.87042 4.48339 2.86531 4.46666C2.8602 4.44993 2.85862 4.43228 2.86067 4.41487L3.13307 2.05862C3.1366 2.02851 3.15079 2.0008 3.17292 1.98077C3.19506 1.96073 3.22358 1.94978 3.25307 1.95H5.24267C5.25971 1.94987 5.27659 1.95348 5.29217 1.96059C5.30776 1.9677 5.32169 1.97814 5.33305 1.99122C5.3444 2.0043 5.35291 2.01972 5.35802 2.03645C5.36313 2.05318 5.36471 2.07083 5.36267 2.08824L5.09627 4.44449C5.09273 4.4746 5.07854 4.50231 5.05641 4.52234C5.03428 4.54238 5.00575 4.55333 4.97627 4.55311ZM3.11627 4.30625H4.87067L5.11067 2.19439H3.35987L3.11627 4.30625Z" fill="#351F97"/>
<path d="M9.18226 4.55312H7.18906C7.15958 4.55334 7.13105 4.54239 7.10892 4.52235C7.08679 4.50232 7.0726 4.47461 7.06906 4.4445L6.80266 2.08455C6.80062 2.06714 6.8022 2.04948 6.80731 2.03275C6.81241 2.01602 6.82093 2.00061 6.83228 1.98753C6.84364 1.97445 6.85757 1.96401 6.87315 1.9569C6.88874 1.94979 6.90562 1.94618 6.92266 1.94631H8.91106C8.94055 1.94609 8.96907 1.95704 8.99121 1.97707C9.01334 1.99711 9.02753 2.02482 9.03106 2.05492L9.30346 4.41364C9.30571 4.43125 9.30424 4.44915 9.29915 4.46612C9.29405 4.48309 9.28546 4.49872 9.27396 4.51197C9.26245 4.52521 9.2483 4.53574 9.23248 4.54284C9.21665 4.54994 9.19953 4.55345 9.18226 4.55312ZM7.29466 4.30626H9.04666L8.80666 2.1944H7.05226L7.29466 4.30626Z" fill="#351F97"/>
<path d="M5.10947 5.24925H2.85707V4.30626H5.10947V5.24925ZM3.09707 5.0024H4.86947V4.55312H3.09707V5.0024Z" fill="#351F97"/>
<path fill-rule="evenodd" clip-rule="evenodd" d="M2.8152 4.26236H5.15132V5.29316H2.8152V4.26236ZM2.89892 4.35016V5.20535H5.0676V4.35016H2.89892ZM3.0552 4.50922H4.91132V5.0463H3.0552V4.50922ZM3.13892 4.59702V4.9585H4.8276V4.59702H3.13892Z" fill="#351F97"/>
<path d="M9.30827 5.24925H7.05587V4.30626H9.30827V5.24925ZM7.29587 5.0024H9.06827V4.55312H7.29587V5.0024Z" fill="#351F97"/>
<path fill-rule="evenodd" clip-rule="evenodd" d="M7.01401 4.26236H9.35013V5.29316H7.01401V4.26236ZM7.09773 4.35016V5.20535H9.26641V4.35016H7.09773ZM7.25401 4.50922H9.11013V5.0463H7.25401V4.50922ZM7.33773 4.59702V4.9585H9.02641V4.59702H7.33773Z" fill="#351F97"/>
</svg>
